PathFileType	4	(X/Y/Z)	Kaydara																																																																																																																									
DataRate	CameraRate	NumFrames	NumMarkers	Units	OrigDataRate	OrigDataStartFrame	OrigNumFrames																																																																																																																					
30	30	8	41	mm	30	49	195																																																																																																																					
Frame#	Time	NABA_LFHD			NABA_RFHD			NABA_LBHD			NABA_RBHD			NABA_LFTShould			NABA_RFTShould			NABA_LRRShould			NABA_RRRShould			NABA_T10			NABA_STRN			NABA_TRUN			NABA_LSHO			NABA_LUPA			NABA_LELB			NABA_LFRM			NABA_LWRA			NABA_LWRB			NABA_LFIN			NABA_RSHO			NABA_RUPA			NABA_RELB			NABA_RFRM			NABA_RWRA			NABA_RWRB			NABA_RFIN			NABA_LFWT			NABA_RFWT			NABA_LBWT			NABA_RBWT			NABA_LTHI			NABA_LKNE			NABA_LSHN			NABA_LANK			NABA_LHEE			NABA_LTOE			NABA_RTHI			NABA_RKNE			NABA_RSHN			NABA_RANK			NABA_RHEE			NABA_RTOE		
		X1	Y1	Z1	X2	Y2	Z2	X3	Y3	Z3	X4	Y4	Z4	X5	Y5	Z5	X6	Y6	Z6	X7	Y7	Z7	X8	Y8	Z8	X9	Y9	Z9	X10	Y10	Z10	X11	Y11	Z11	X12	Y12	Z12	X13	Y13	Z13	X14	Y14	Z14	X15	Y15	Z15	X16	Y16	Z16	X17	Y17	Z17	X18	Y18	Z18	X19	Y19	Z19	X20	Y20	Z20	X21	Y21	Z21	X22	Y22	Z22	X23	Y23	Z23	X24	Y24	Z24	X25	Y25	Z25	X26	Y26	Z26	X27	Y27	Z27	X28	Y28	Z28	X29	Y29	Z29	X30	Y30	Z30	X31	Y31	Z31	X32	Y32	Z32	X33	Y33	Z33	X34	Y34	Z34	X35	Y35	Z35	X36	Y36	Z36	X37	Y37	Z37	X38	Y38	Z38	X39	Y39	Z39	X40	Y40	Z40	X41	Y41	Z41
																																																																																																																												
49	1.61	245.8127	1621.09131	-1936.23474	76.63439	1600.87006	-1908.1929	257.70407	1590.32745	-2059.36722	41.99797	1582.57782	-2001.84067	236.61343	1343.00247	-1947.10876	100.71199	1340.84991	-1950.58136	238.63842	1379.91669	-2073.76221	88.45804	1379.37286	-2067.6506	173.43811	1208.26454	-2120.43457	167.45022	1295.27985	-1895.06027	166.08624	1204.39651	-1835.66132	335.88158	1354.98459	-2002.33002	386.12984	1116.17554	-2027.39136	394.9437	1034.01161	-1997.15546	386.89003	962.45766	-2017.35489	329.96258	817.49252	-1938.44742	401.83353	817.40677	-1938.79303	379.02336	758.32306	-1896.19583	5.99633	1356.13739	-2002.23984	-41.59704	1152.85706	-2059.57108	-64.89528	1029.42459	-2011.38	-66.5005	934.80698	-1999.5813	1.39977	816.31714	-1917.10342	-71.81733	803.29208	-1916.47675	-55.44665	767.34062	-1884.00574	294.83551	950.77301	-1916.55136	28.35287	952.02805	-1922.94601	241.53538	1022.96043	-2084.88205	83.04384	1034.14307	-2092.43988	297.87876	657.71332	-2070.00076	293.44095	505.93987	-2023.53806	241.33183	308.12887	-2010.96344	269.53547	159.27457	-2085.36041	211.43061	112.5446	-2139.55811	240.52042	78.37989	-1956.39343	32.95529	672.01881	-2078.05542	48.55479	506.79146	-1975.16251	60.64353	333.77831	-2003.6174	55.81612	143.55356	-2075.42633	112.88602	99.22371	-2142.18384	62.54889	77.14221	-1955.01175
50	1.643	246.07307	1621.36795	-1933.45978	77.19944	1600.78796	-1905.54184	258.2086	1590.7489	-2056.62888	42.4051	1582.67212	-1999.49783	237.24569	1343.26935	-1944.61487	101.10268	1341.03912	-1948.46436	239.35574	1380.27084	-2071.19049	89.18571	1379.64233	-2065.32578	174.13837	1208.57796	-2118.07922	168.06799	1295.31464	-1893.21411	166.51974	1204.3718	-1833.38867	336.51161	1355.24628	-1999.60953	387.11845	1116.63208	-2025.06699	396.01048	1034.38179	-1994.98489	388.08765	962.88994	-2015.3894	331.85768	817.28584	-1937.45972	403.31348	817.69829	-1937.28989	380.6942	758.39272	-1894.89182	6.65681	1356.3028	-1999.94995	-40.9386	1153.08006	-2057.35779	-64.22173	1029.5504	-2009.16336	-65.80218	934.92905	-1997.3848	2.43388	816.53412	-1914.8967	-70.91953	803.44093	-1914.27444	-54.54535	767.50839	-1881.83456	295.36411	951.05103	-1914.35745	29.05963	951.78123	-1921.21246	242.14264	1023.53813	-2082.58408	83.63123	1034.51866	-2090.41992	298.35621	658.41225	-2068.86154	293.60477	506.46217	-2023.12866	241.47175	308.9221	-2010.79391	269.5895	159.90087	-2084.91562	211.42645	113.34696	-2139.21631	240.51289	78.29211	-1956.16806	33.79092	672.14394	-2076.72211	49.31907	506.79253	-1974.38354	60.96445	333.90163	-2002.75681	55.99816	143.81289	-2075.19714	113.15083	99.56983	-2142.0195	62.60587	77.1352	-1954.85489
51	1.677	246.25963	1621.62476	-1930.67413	77.44842	1600.82855	-1903.06961	258.57569	1591.203	-2053.87939	42.773	1582.79037	-1996.94992	237.65831	1343.50967	-1941.9902	101.65486	1341.23718	-1945.91476	239.88174	1380.69794	-2068.57864	89.71188	1380.01266	-2062.8479	174.7237	1208.98392	-2115.75485	168.4981	1295.63293	-1890.86319	166.87403	1204.57794	-1831.08734	336.93413	1355.78522	-1996.90002	387.95403	1117.36534	-2022.62878	396.97113	1035.13878	-1992.79602	389.25339	963.61153	-2013.32352	332.86144	818.12439	-1934.75952	404.86103	818.29887	-1935.52338	382.32204	758.83621	-1893.26828	7.1337	1356.65085	-1997.59323	-40.50442	1153.47343	-2054.88205	-63.73013	1030.0985	-2006.96808	-65.12347	935.3093	-1994.93683	3.29933	816.84944	-1912.58636	-70.06932	803.8356	-1911.83578	-53.60268	767.89665	-1879.42795	295.74862	951.15486	-1912.8125	29.52209	951.61545	-1919.61258	242.72779	1024.24515	-2080.45334	84.20793	1034.99611	-2088.42819	299.05502	659.00841	-2068.11798	294.12987	506.86653	-2022.92664	241.82245	309.38257	-2010.74112	270.04005	160.36066	-2084.37164	211.85852	113.92828	-2139.10538	240.69326	78.22296	-1956.07285	34.56137	672.39967	-2075.80002	49.78146	506.78185	-1973.9534	60.80665	333.95714	-2002.00806	56.06768	144.02963	-2075.11902	113.27644	99.80522	-2141.91589	62.62607	77.09672	-1954.72
52	1.71	246.45973	1621.83517	-1928.00461	77.68652	1600.83237	-1900.46768	258.8619	1591.43051	-2051.18118	43.00593	1582.95441	-1994.49219	237.89867	1343.71658	-1939.42703	101.9237	1341.45172	-1943.53058	240.1384	1381.07086	-2065.92972	90.00623	1380.29526	-2060.26398	175.09663	1209.39529	-2113.405	168.75935	1295.6752	-1887.87811	167.17533	1204.53918	-1828.79074	337.23381	1356.21521	-1994.1925	388.66341	1118.06252	-2020.36469	397.9335	1035.79224	-1990.71075	390.37235	964.25041	-2011.25839	334.75815	818.4227	-1933.1781	406.34285	818.92807	-1933.43903	384.1291	759.45366	-1891.30936	7.46221	1356.87012	-1994.97818	-40.17904	1153.72498	-2052.3233	-63.08088	1030.04555	-2004.1391	-64.61103	935.50003	-1992.43439	4.03587	817.20467	-1910.15625	-69.23269	804.12613	-1909.17725	-52.66272	768.21518	-1876.74713	296.47251	951.06331	-1911.21552	29.98413	951.45233	-1918.25439	243.25949	1024.67575	-2078.84979	84.74855	1035.41931	-2086.79001	299.7463	659.18564	-2067.38037	294.71481	506.98746	-2022.38678	242.17148	309.53354	-2010.4451	270.39852	160.52639	-2084.02985	212.26919	114.32577	-2139.03152	240.80673	78.17671	-1956.02936	34.8748	672.60262	-2075.30716	50.03181	506.81568	-1973.78677	61.63859	334.31339	-2002.96295	56.01281	144.20074	-2075.14725	113.24026	99.98167	-2141.91116	62.54132	77.12646	-1954.69772
53	1.743	246.598	1621.89941	-1925.51529	77.63678	1601.03638	-1898.0455	259.03856	1591.40625	-2048.6702	43.15736	1583.02338	-1992.06604	238.09677	1343.73611	-1936.95206	102.2497	1341.17401	-1940.91507	240.24414	1381.40823	-2063.40912	90.06792	1380.56061	-2057.61322	175.34147	1209.80736	-2111.32263	168.96368	1295.31693	-1885.46844	167.53378	1204.06593	-1826.716	337.40585	1356.52344	-1991.69617	389.34444	1118.50296	-2018.21579	398.88496	1036.21292	-1988.70377	391.38889	964.57596	-2009.18945	335.98186	818.74725	-1930.68512	407.74349	819.375	-1931.25046	385.75512	760.00183	-1888.95065	7.67778	1356.80298	-1992.23099	-40.19801	1153.78853	-2049.76212	-62.9875	1030.00763	-2001.72256	-64.35025	935.38895	-1989.8587	4.91292	817.47787	-1907.314	-68.42299	804.16924	-1906.2558	-51.7415	768.43269	-1873.78464	297.05555	950.87456	-1910.17532	30.38429	951.231	-1917.16583	243.7528	1024.86771	-2077.61414	85.28243	1035.75157	-2085.53268	299.84562	659.23996	-2066.77109	294.89683	507.00596	-2022.08786	242.25416	309.61594	-2010.23865	270.4022	160.63551	-2083.84003	212.22433	114.5279	-2138.89999	240.83149	78.17059	-1955.99884	35.44516	672.78358	-2074.89014	50.29017	506.76075	-1973.7738	61.73743	334.38095	-2003.02963	56.03427	144.30591	-2075.22766	113.24789	99.9701	-2141.93634	62.45778	77.12324	-1954.69467
54	1.777	246.65648	1621.78864	-1923.14148	77.373	1601.13892	-1895.78262	259.04861	1591.33942	-2046.31088	43.19791	1583.05313	-1989.64203	238.12616	1343.56232	-1934.70886	102.26991	1340.858	-1938.86139	240.32639	1381.74377	-2061.12534	90.11191	1380.70953	-2055.28458	175.50596	1210.19997	-2109.57504	169.12895	1294.73343	-1883.33191	167.80933	1203.39478	-1824.85199	337.4736	1356.69296	-1989.26926	389.87946	1118.778	-2016.07727	399.66175	1036.50673	-1986.66061	392.34661	964.82307	-2007.05933	337.55234	819.0049	-1928.65585	408.93333	819.78806	-1928.82889	387.062	760.51041	-1886.34048	7.81888	1356.67099	-1989.72519	-40.40799	1153.64517	-2047.3027	-63.1013	1029.98184	-1999.37256	-64.2388	935.20027	-1987.14798	5.36704	817.51694	-1904.82986	-67.82527	804.16618	-1903.21884	-50.90412	768.51379	-1870.66895	297.17661	950.67245	-1909.05258	30.67111	951.04576	-1916.47964	244.19819	1025.01251	-2076.4537	85.71774	1035.88425	-2084.52454	299.80337	659.30511	-2066.41342	294.89058	507.01458	-2021.99371	242.30896	309.64252	-2010.23697	270.30436	160.66351	-2083.97705	212.05795	114.56548	-2138.87115	240.80521	78.18732	-1956.03653	36.2587	672.69051	-2074.22363	50.48331	506.67782	-1973.6647	61.34592	334.2931	-2002.41287	56.15352	144.33255	-2075.32913	113.46826	99.97766	-2141.92032	62.45011	77.09929	-1954.74228
55	1.81	246.60347	1621.51138	-1920.89066	77.49934	1600.76569	-1893.44284	258.96872	1591.44257	-2044.15253	43.09474	1582.91229	-1987.44003	238.21096	1343.50952	-1932.91626	102.25355	1340.72144	-1937.17636	240.40417	1381.88751	-2059.30832	90.1829	1380.7193	-2053.51227	175.71804	1210.31494	-2108.04718	169.39077	1294.50729	-1881.95068	167.86793	1202.95448	-1823.39386	337.57015	1356.84723	-1987.35672	390.39165	1119.06555	-2014.15375	400.31399	1036.80336	-1984.77448	393.10562	965.0209	-2005.04242	338.04398	819.38126	-1925.6871	409.83223	820.19203	-1926.40366	388.03925	760.98793	-1883.69293	7.91704	1356.51291	-1987.9895	-40.60357	1153.51517	-2045.21042	-63.03591	1029.79187	-1996.92673	-64.12633	935.04906	-1984.5076	5.92142	817.59979	-1902.0726	-67.3992	804.21677	-1900.29663	-50.31142	768.71758	-1867.71942	297.13352	950.40688	-1908.09372	30.82101	950.76675	-1915.69489	244.41561	1025.07225	-2075.35446	85.96947	1035.8596	-2083.48419	300.12295	659.25697	-2065.79758	295.0675	506.93001	-2021.53198	242.36572	309.54987	-2010.06424	270.45559	160.57762	-2083.96286	212.20919	114.54151	-2138.90167	240.85112	78.20486	-1956.11496	36.39712	672.65213	-2073.54416	50.57256	506.53099	-1973.09021	61.31527	334.10118	-2002.03491	56.17063	144.34359	-2075.22949	113.45974	100.00296	-2141.84814	62.40541	77.10151	-1954.69223
56	1.843	246.48546	1621.25031	-1918.76617	77.43848	1600.28458	-1891.46683	258.87569	1591.58524	-2042.13257	43.06792	1582.74002	-1985.40558	238.12752	1343.36746	-1931.47308	102.45698	1340.42603	-1935.67719	240.45179	1381.90704	-2057.87369	90.18136	1380.6488	-2052.22137	175.82157	1210.31654	-2106.73325	169.35907	1294.36905	-1880.86182	167.88795	1202.70912	-1822.19101	337.52239	1356.8573	-1985.76981	390.79845	1119.24011	-2012.50473	400.81985	1036.96739	-1983.0748	393.67489	965.05074	-2003.17032	338.8726	819.54971	-1923.936	410.3595	820.46837	-1924.07532	388.63529	761.42921	-1881.2442	7.8976	1356.38046	-1986.70624	-40.59903	1153.10364	-2043.55118	-63.09341	1029.76631	-1995.1445	-63.95059	934.88495	-1982.20062	6.23905	817.85385	-1899.36676	-67.14425	804.27078	-1897.50122	-50.05107	768.94379	-1864.85199	297.23871	950.1297	-1907.28043	30.99232	950.65033	-1914.61029	244.42413	1025	-2074.33685	85.95475	1035.91568	-2082.33093	300.29001	659.19464	-2065.05035	295.12812	506.77353	-2020.88699	242.36916	309.41418	-2009.75296	270.52153	160.53251	-2083.87344	212.30282	114.55485	-2138.86673	240.85625	78.2349	-1956.17554	36.19778	672.66159	-2072.85477	50.5325	506.3802	-1972.60651	61.91776	334.19132	-2002.46887	56.13245	144.26131	-2075.14557	113.40954	100.0361	-2141.83151	62.37679	77.10871	-1954.70688
